<?xml version="1.0" encoding="utf-8"?>
<!-- Generator: Adobe Illustrator 16.0.0, SVG Export Plug-In . SVG Version: 6.00 Build 0)  -->
<!DOCTYPE svg PUBLIC "-//W3C//DTD SVG 1.1//EN" "http://www.w3.org/Graphics/SVG/1.1/DTD/svg11.dtd">
<svg version="1.1" id="图层_1" xmlns="http://www.w3.org/2000/svg" xmlns:xlink="http://www.w3.org/1999/xlink" x="0px" y="0px"
	 width="220.305px" height="99.855px" viewBox="0 0 220.305 99.855" enable-background="new 0 0 220.305 99.855"
	 xml:space="preserve">
<rect x="87.251" y="11.503" fill="#FFFFFF" width="41.064" height="5.493"/>
<rect x="100.089" y="0.429" fill="#FFFFFF" width="28.229" height="5.493"/>
<path fill="#FFFFFF" d="M139.386,0.433c0.496,0.002,0.99,0.046,1.479,0.133c0.437,0.069,0.863,0.186,1.274,0.35l-0.237,1.103
	c-0.369-0.13-0.746-0.231-1.131-0.305c-0.395-0.078-0.795-0.117-1.197-0.118c-1.116-0.067-2.213,0.326-3.03,1.087
	c-0.771,0.845-1.162,1.966-1.088,3.106c-0.074,1.14,0.317,2.261,1.088,3.106c0.817,0.762,1.915,1.155,3.03,1.088
	c0.402-0.001,0.804-0.041,1.197-0.119c0.385-0.073,0.764-0.175,1.131-0.305l0.237,1.102c-0.411,0.164-0.839,0.281-1.274,0.35
	c-0.487,0.087-0.981,0.131-1.479,0.132c-0.775,0.013-1.549-0.124-2.273-0.404c-0.637-0.246-1.211-0.627-1.688-1.117
	c-0.459-0.484-0.813-1.057-1.043-1.683c-0.249-0.688-0.373-1.415-0.363-2.146c-0.009-0.73,0.114-1.456,0.363-2.142
	c0.229-0.626,0.584-1.199,1.043-1.683c0.477-0.489,1.053-0.871,1.688-1.117C137.837,0.567,138.608,0.425,139.386,0.433z"/>
<path fill="#FFFFFF" d="M143.987,10.972V0h1.398v4.459c0.273-0.342,0.618-0.622,1.01-0.822c0.406-0.194,0.854-0.291,1.305-0.281
	c0.418-0.011,0.83,0.091,1.195,0.295c0.332,0.192,0.615,0.458,0.826,0.778c0.232,0.357,0.399,0.754,0.492,1.171
	c0.102,0.464,0.148,0.938,0.146,1.413v3.938h-1.396V7.088c0.003-0.351-0.029-0.702-0.094-1.048c-0.051-0.287-0.15-0.563-0.297-0.817
	c-0.125-0.221-0.307-0.406-0.525-0.537c-0.242-0.135-0.516-0.202-0.793-0.192c-0.391-0.008-0.773,0.106-1.098,0.325
	c-0.283,0.189-0.537,0.419-0.752,0.685v5.468H143.987L143.987,10.972z"/>
<path fill="#FFFFFF" d="M152.411,1.304c-0.004-0.23,0.084-0.452,0.24-0.62c0.357-0.352,0.933-0.352,1.289,0
	c0.157,0.168,0.244,0.39,0.24,0.62c0.004,0.23-0.083,0.452-0.24,0.621c-0.357,0.352-0.932,0.352-1.289,0
	C152.493,1.757,152.407,1.535,152.411,1.304z M152.593,10.972V3.515h1.396v7.457H152.593z"/>
<path fill="#FFFFFF" d="M156.323,10.972V3.515h1.334v1.088c0.263-0.378,0.607-0.69,1.01-0.916c0.421-0.224,0.893-0.336,1.367-0.325
	c0.42-0.012,0.832,0.09,1.197,0.295c0.33,0.189,0.613,0.454,0.825,0.772c0.232,0.358,0.4,0.755,0.493,1.172
	c0.1,0.464,0.148,0.938,0.146,1.413v3.938h-1.397V7.088c0.003-0.352-0.028-0.703-0.094-1.048c-0.052-0.288-0.151-0.564-0.296-0.817
	c-0.127-0.221-0.307-0.406-0.525-0.537c-0.242-0.135-0.518-0.202-0.793-0.192c-0.391-0.008-0.773,0.105-1.098,0.325
	c-0.284,0.188-0.538,0.419-0.754,0.684v5.469H156.323z"/>
<path fill="#FFFFFF" d="M169.131,10.041c-0.125,0.147-0.267,0.281-0.418,0.399c-0.176,0.136-0.365,0.253-0.565,0.349
	c-0.225,0.107-0.457,0.189-0.699,0.246c-0.264,0.063-0.532,0.095-0.803,0.093c-0.293,0.004-0.582-0.046-0.854-0.148
	c-0.25-0.091-0.478-0.231-0.67-0.413c-0.193-0.185-0.345-0.408-0.443-0.655c-0.112-0.271-0.167-0.563-0.161-0.856
	c-0.037-0.608,0.233-1.192,0.723-1.556c0.572-0.384,1.244-0.596,1.935-0.61c0.329-0.02,0.656-0.036,0.985-0.049h0.939V6.517
	c0.028-0.523-0.113-1.041-0.402-1.476c-0.33-0.388-0.828-0.592-1.336-0.547c-0.35-0.002-0.696,0.044-1.032,0.138
	c-0.327,0.094-0.644,0.224-0.939,0.389l-0.325-1.024c0.373-0.227,0.779-0.394,1.205-0.492c0.441-0.096,0.894-0.142,1.344-0.138
	c0.785-0.038,1.55,0.255,2.107,0.807c0.559,0.636,0.842,1.468,0.787,2.313v4.489h-1.373L169.131,10.041L169.131,10.041z
	 M167.049,10.105c0.394,0.001,0.781-0.092,1.132-0.271c0.344-0.176,0.653-0.412,0.916-0.694V7.757l-0.871,0.063
	c-0.27,0.02-0.537,0.046-0.808,0.079c-0.208,0.019-0.413,0.055-0.615,0.108c-0.174,0.046-0.339,0.117-0.491,0.211
	c-0.137,0.084-0.248,0.201-0.326,0.34c-0.078,0.152-0.119,0.321-0.117,0.492c-0.021,0.297,0.093,0.589,0.311,0.792
	c0.251,0.186,0.561,0.276,0.871,0.256L167.049,10.105L167.049,10.105z"/>
<path fill="#FFFFFF" d="M141.764,26.511l-5.813-8.127v8.127h-1.367V16.174h1.367l5.813,8.117v-8.132h1.369v10.337L141.764,26.511z"
	/>
<path fill="#FFFFFF" d="M149.724,25.595c-0.126,0.147-0.266,0.28-0.418,0.399c-0.177,0.136-0.367,0.253-0.566,0.35
	c-0.225,0.107-0.457,0.189-0.698,0.246c-0.263,0.063-0.532,0.095-0.804,0.093c-0.291,0.004-0.582-0.046-0.855-0.147
	c-0.255-0.101-0.486-0.253-0.68-0.448c-0.192-0.185-0.344-0.408-0.442-0.655c-0.11-0.271-0.167-0.563-0.162-0.856
	c-0.036-0.607,0.235-1.192,0.726-1.556c0.572-0.382,1.244-0.592,1.933-0.605c0.329-0.02,0.657-0.037,0.985-0.049h0.938v-0.316
	c0.03-0.523-0.112-1.041-0.401-1.477c-0.332-0.385-0.83-0.585-1.336-0.537c-0.349-0.002-0.696,0.044-1.031,0.138
	c-0.328,0.094-0.643,0.224-0.94,0.388l-0.325-1.023c0.373-0.228,0.779-0.394,1.205-0.492c0.442-0.096,0.893-0.143,1.346-0.138
	c0.781-0.047,1.547,0.234,2.111,0.778c0.559,0.636,0.842,1.468,0.787,2.313v4.489h-1.369v-0.895H149.724z M147.642,25.659
	c0.393,0.001,0.781-0.091,1.133-0.271c0.344-0.176,0.652-0.411,0.916-0.694v-1.398l-0.873,0.063
	c-0.268,0.02-0.537,0.046-0.807,0.079c-0.208,0.019-0.413,0.055-0.615,0.108c-0.174,0.046-0.34,0.118-0.492,0.212
	c-0.135,0.083-0.246,0.2-0.324,0.339c-0.079,0.152-0.12,0.321-0.118,0.492c-0.019,0.294,0.095,0.582,0.31,0.783
	c0.252,0.188,0.561,0.283,0.873,0.266v0.021H147.642z"/>
<path fill="#FFFFFF" d="M152.455,19.054h1.338v-1.915h1.397v1.91h2.461v1.132h-2.461v3.81c0,0.206,0.019,0.411,0.051,0.615
	c0.023,0.174,0.082,0.341,0.172,0.493c0.084,0.136,0.203,0.246,0.346,0.32c0.18,0.086,0.377,0.126,0.575,0.118
	c0.401,0.006,0.804-0.063,1.181-0.202l0.123,1.058c-0.229,0.091-0.466,0.157-0.708,0.197c-0.296,0.055-0.596,0.083-0.896,0.084
	c-0.352,0.01-0.7-0.055-1.023-0.192c-0.271-0.124-0.511-0.311-0.693-0.547c-0.188-0.247-0.321-0.53-0.395-0.832
	c-0.085-0.346-0.127-0.701-0.123-1.058v-3.864h-1.339L152.455,19.054z"/>
<path fill="#FFFFFF" d="M159.168,16.844c-0.002-0.23,0.084-0.453,0.241-0.62c0.357-0.352,0.932-0.352,1.289,0
	c0.322,0.353,0.322,0.892,0,1.245c-0.357,0.352-0.932,0.352-1.289,0C159.251,17.3,159.165,17.076,159.168,16.844z M159.356,26.511
	v-7.458h1.396v7.458H159.356z"/>
<path fill="#FFFFFF" d="M169.786,22.785c0.002,0.502-0.08,1-0.241,1.477c-0.151,0.459-0.394,0.884-0.709,1.25
	c-0.315,0.361-0.704,0.649-1.142,0.847c-0.981,0.416-2.09,0.416-3.071,0c-0.433-0.198-0.819-0.487-1.132-0.847
	c-0.315-0.362-0.557-0.782-0.709-1.235c-0.321-0.969-0.321-2.015,0-2.983c0.152-0.455,0.394-0.874,0.709-1.236
	c0.313-0.359,0.699-0.647,1.132-0.847c0.981-0.416,2.089-0.416,3.071,0c0.437,0.196,0.826,0.483,1.142,0.841
	c0.313,0.362,0.556,0.782,0.709,1.236C169.708,21.77,169.79,22.276,169.786,22.785z M168.389,22.785
	c0.001-0.368-0.048-0.733-0.144-1.088c-0.084-0.321-0.223-0.624-0.414-0.896c-0.178-0.259-0.412-0.471-0.688-0.621
	c-0.625-0.293-1.348-0.293-1.97,0c-0.274,0.143-0.512,0.348-0.688,0.601c-0.19,0.271-0.33,0.575-0.414,0.896
	c-0.188,0.716-0.188,1.469,0,2.186c0.084,0.317,0.225,0.617,0.414,0.886c0.178,0.252,0.414,0.459,0.688,0.601
	c0.623,0.293,1.345,0.293,1.97,0c0.278-0.135,0.521-0.336,0.707-0.586c0.189-0.269,0.329-0.569,0.414-0.886
	c0.088-0.357,0.129-0.725,0.117-1.093H168.389L168.389,22.785z"/>
<path fill="#FFFFFF" d="M171.573,26.511v-7.458h1.332v1.088c0.264-0.378,0.608-0.69,1.011-0.916c0.42-0.223,0.892-0.335,1.368-0.325
	c0.418-0.012,0.83,0.09,1.195,0.295c0.332,0.198,0.614,0.474,0.821,0.802c0.231,0.358,0.399,0.754,0.492,1.172
	c0.101,0.464,0.147,0.938,0.147,1.413v3.938h-1.397v-3.878c0.002-0.352-0.029-0.703-0.095-1.049
	c-0.051-0.287-0.15-0.563-0.295-0.817c-0.127-0.221-0.309-0.406-0.526-0.537c-0.241-0.135-0.517-0.201-0.793-0.192
	c-0.392-0.008-0.772,0.105-1.097,0.325c-0.285,0.189-0.539,0.419-0.754,0.685v5.454H171.573L171.573,26.511z"/>
<path fill="#FFFFFF" d="M184.375,25.595c-0.125,0.147-0.265,0.281-0.419,0.399c-0.176,0.136-0.365,0.253-0.564,0.35
	c-0.224,0.107-0.459,0.189-0.699,0.246c-0.263,0.063-0.533,0.095-0.803,0.093c-0.292,0.004-0.583-0.046-0.855-0.147
	c-0.248-0.091-0.477-0.232-0.67-0.413c-0.192-0.185-0.344-0.408-0.443-0.655c-0.109-0.272-0.166-0.563-0.162-0.856
	c-0.036-0.607,0.236-1.192,0.725-1.556c0.573-0.382,1.244-0.592,1.936-0.605c0.327-0.02,0.656-0.036,0.984-0.049h0.938v-0.349
	c0.029-0.523-0.112-1.042-0.403-1.477c-0.326-0.382-0.817-0.583-1.318-0.542c-0.35-0.002-0.697,0.044-1.033,0.138
	c-0.327,0.094-0.645,0.224-0.939,0.389l-0.326-1.024c0.375-0.228,0.781-0.394,1.207-0.493c0.441-0.096,0.893-0.142,1.345-0.138
	c0.772-0.039,1.528,0.244,2.087,0.783c0.559,0.636,0.843,1.468,0.787,2.313v4.489h-1.368L184.375,25.595L184.375,25.595z
	 M182.293,25.659c0.394,0.001,0.782-0.091,1.133-0.271c0.345-0.176,0.653-0.411,0.915-0.694v-1.398l-0.871,0.063
	c-0.27,0.02-0.538,0.046-0.809,0.079c-0.206,0.019-0.413,0.055-0.613,0.108c-0.174,0.046-0.34,0.118-0.493,0.212
	c-0.135,0.083-0.248,0.2-0.323,0.339c-0.08,0.152-0.121,0.321-0.119,0.492c-0.019,0.294,0.096,0.582,0.312,0.783
	c0.25,0.188,0.56,0.283,0.871,0.266L182.293,25.659L182.293,25.659z"/>
<path fill="#FFFFFF" d="M189.28,24.571c-0.016,0.243,0.047,0.484,0.18,0.689c0.152,0.176,0.383,0.267,0.615,0.241
	c0.236-0.001,0.47-0.033,0.697-0.094l0.064,1.054c-0.365,0.119-0.747,0.177-1.132,0.172c-0.533,0.051-1.058-0.164-1.397-0.576
	c-0.289-0.414-0.436-0.909-0.419-1.413v-9.106h1.398L189.28,24.571z"/>
<path fill="#FFFFFF" d="M139.56,31.501c0.557-0.002,1.114,0.047,1.663,0.148c0.496,0.087,0.978,0.241,1.433,0.458l-0.235,1.132
	c-0.452-0.177-0.918-0.318-1.394-0.418c-0.485-0.104-0.98-0.155-1.478-0.152c-1.122-0.063-2.222,0.344-3.032,1.122
	c-0.779,0.873-1.178,2.022-1.102,3.19c-0.075,1.113,0.299,2.211,1.037,3.047c0.697,0.708,1.738,1.063,3.125,1.063
	c0.33,0,0.658-0.022,0.986-0.069c0.305-0.031,0.607-0.087,0.904-0.167v-3.371h1.305v4.173c-0.484,0.194-0.99,0.334-1.506,0.418
	c-0.605,0.111-1.222,0.167-1.837,0.168c-0.776,0.012-1.552-0.116-2.282-0.379c-0.641-0.233-1.223-0.599-1.709-1.072
	c-0.469-0.47-0.83-1.036-1.059-1.659c-0.25-0.683-0.373-1.405-0.363-2.131c-0.01-0.758,0.119-1.512,0.379-2.225
	c0.238-0.649,0.613-1.239,1.098-1.732c0.494-0.494,1.09-0.878,1.742-1.127C137.978,31.633,138.767,31.493,139.56,31.501z"/>
<path fill="#FFFFFF" d="M147.901,34.455c0.429-0.009,0.854,0.07,1.25,0.231c0.701,0.28,1.24,0.857,1.473,1.575
	c0.121,0.385,0.181,0.787,0.178,1.191c0,0.424-0.054,0.848-0.158,1.26h-4.709c0.004,0.333,0.057,0.665,0.156,0.984
	c0.087,0.279,0.232,0.536,0.43,0.753c0.205,0.223,0.461,0.391,0.746,0.492c0.358,0.123,0.734,0.181,1.113,0.172
	c0.384,0.002,0.768-0.039,1.143-0.124c0.336-0.076,0.664-0.18,0.983-0.31l0.188,1.039c-0.371,0.167-0.758,0.29-1.158,0.364
	c-0.446,0.089-0.901,0.133-1.357,0.133c-0.558,0.011-1.109-0.093-1.625-0.306c-0.438-0.185-0.826-0.465-1.143-0.822
	c-0.313-0.355-0.549-0.77-0.692-1.221c-0.306-0.987-0.306-2.044,0-3.032c0.144-0.456,0.372-0.879,0.675-1.25
	c0.293-0.355,0.66-0.641,1.077-0.837C146.919,34.546,147.409,34.445,147.901,34.455z M147.854,35.494
	c-0.274-0.005-0.547,0.054-0.793,0.172c-0.229,0.114-0.43,0.273-0.592,0.468c-0.171,0.206-0.303,0.441-0.389,0.694
	c-0.096,0.268-0.154,0.548-0.174,0.832h3.515c0.037-0.276,0.037-0.556,0-0.832c-0.034-0.246-0.12-0.483-0.25-0.694
	c-0.121-0.197-0.291-0.358-0.493-0.468c-0.254-0.13-0.535-0.195-0.822-0.187L147.854,35.494z"/>
<path fill="#FFFFFF" d="M152.549,42.05v-7.457h1.334v1.087c0.263-0.378,0.606-0.69,1.009-0.916c0.42-0.224,0.893-0.335,1.368-0.325
	c0.418-0.012,0.832,0.091,1.196,0.295c0.333,0.199,0.615,0.474,0.822,0.802c0.231,0.358,0.398,0.755,0.492,1.172
	c0.1,0.464,0.148,0.938,0.146,1.413v3.938h-1.402v-3.894c0.003-0.352-0.028-0.703-0.094-1.048c-0.051-0.287-0.149-0.564-0.295-0.817
	c-0.126-0.222-0.31-0.406-0.526-0.537c-0.242-0.135-0.517-0.202-0.793-0.192c-0.391-0.008-0.773,0.105-1.099,0.325
	c-0.284,0.188-0.536,0.419-0.752,0.685v5.468L152.549,42.05L152.549,42.05z"/>
<path fill="#FFFFFF" d="M164.032,34.455c0.429-0.009,0.854,0.07,1.25,0.231c0.695,0.291,1.226,0.875,1.445,1.595
	c0.123,0.385,0.182,0.787,0.178,1.191c0,0.425-0.053,0.848-0.156,1.26h-4.706c0.005,0.334,0.058,0.666,0.157,0.985
	c0.087,0.278,0.232,0.536,0.428,0.753c0.206,0.223,0.464,0.392,0.749,0.492c0.356,0.124,0.733,0.181,1.112,0.172
	c0.384,0.003,0.768-0.039,1.142-0.124c0.336-0.076,0.665-0.18,0.983-0.31l0.188,1.039c-0.37,0.167-0.759,0.29-1.157,0.364
	c-0.447,0.089-0.9,0.133-1.357,0.133c-0.557,0.011-1.109-0.093-1.624-0.306c-0.437-0.185-0.828-0.466-1.144-0.822
	c-0.312-0.362-0.543-0.785-0.684-1.241c-0.307-0.987-0.307-2.044,0-3.032c0.145-0.456,0.373-0.879,0.674-1.25
	c0.293-0.355,0.662-0.641,1.077-0.837C163.042,34.545,163.534,34.444,164.032,34.455z M163.983,35.494
	c-0.273-0.005-0.545,0.054-0.793,0.172c-0.228,0.114-0.429,0.273-0.592,0.468c-0.17,0.206-0.302,0.441-0.389,0.694
	c-0.096,0.268-0.152,0.548-0.172,0.832h3.514c0.037-0.276,0.037-0.556,0-0.832c-0.033-0.246-0.119-0.483-0.251-0.694
	c-0.12-0.197-0.289-0.358-0.491-0.468c-0.255-0.13-0.537-0.195-0.822-0.187L163.983,35.494z"/>
<path fill="#FFFFFF" d="M175.728,39.156c0.002,0.409-0.098,0.814-0.291,1.176c-0.197,0.366-0.478,0.681-0.816,0.92
	c-0.387,0.269-0.815,0.469-1.27,0.591c-0.535,0.146-1.09,0.217-1.646,0.212h-2.929V31.718h3.209
	c0.465-0.006,0.927,0.054,1.373,0.177c0.383,0.097,0.746,0.264,1.068,0.492c0.285,0.21,0.521,0.483,0.686,0.798
	c0.162,0.316,0.244,0.668,0.24,1.024c0.014,0.569-0.207,1.118-0.611,1.521c-0.43,0.426-0.955,0.742-1.533,0.92
	c0.679,0.102,1.313,0.396,1.83,0.847C175.497,37.924,175.749,38.529,175.728,39.156z M171.47,36.143
	c0.332,0.002,0.662-0.039,0.984-0.123c0.281-0.072,0.551-0.192,0.792-0.355c0.21-0.144,0.385-0.331,0.513-0.551
	c0.128-0.225,0.191-0.479,0.188-0.738c0.025-0.462-0.194-0.903-0.58-1.156c-0.457-0.274-0.984-0.408-1.518-0.384h-1.707v3.313
	L171.47,36.143z M174.358,39.097c0.008-0.287-0.066-0.568-0.217-0.813c-0.15-0.235-0.354-0.431-0.596-0.571
	c-0.271-0.159-0.566-0.271-0.876-0.335c-0.349-0.074-0.702-0.11-1.06-0.108h-1.476v3.637h1.654c0.651,0.033,1.301-0.126,1.864-0.458
	c0.449-0.296,0.707-0.807,0.681-1.344L174.358,39.097z"/>
<path fill="#FFFFFF" d="M181.688,41.12c-0.125,0.146-0.267,0.28-0.418,0.398c-0.177,0.136-0.367,0.252-0.565,0.349
	c-0.226,0.107-0.459,0.189-0.699,0.246c-0.265,0.064-0.533,0.096-0.804,0.094c-0.291,0.004-0.581-0.046-0.856-0.147
	c-0.248-0.091-0.476-0.232-0.669-0.413c-0.191-0.185-0.343-0.408-0.443-0.655c-0.109-0.271-0.166-0.563-0.162-0.856
	c-0.035-0.607,0.236-1.192,0.725-1.555c0.574-0.382,1.245-0.592,1.936-0.605c0.328-0.02,0.655-0.035,0.983-0.044l0.921-0.03v-0.325
	c0.029-0.522-0.113-1.041-0.402-1.476c-0.332-0.385-0.83-0.584-1.336-0.537c-0.35-0.002-0.695,0.044-1.033,0.138
	c-0.326,0.094-0.643,0.224-0.939,0.389l-0.324-1.024c0.372-0.228,0.78-0.393,1.205-0.492c0.445-0.091,0.9-0.13,1.354-0.119
	c0.785-0.038,1.551,0.255,2.107,0.808c0.559,0.636,0.842,1.468,0.787,2.313v4.489h-1.369L181.688,41.12z M179.606,41.184
	c0.394,0.001,0.78-0.091,1.131-0.27c0.338-0.179,0.642-0.414,0.896-0.694v-1.383l-0.871,0.063c-0.27,0.02-0.537,0.046-0.808,0.079
	c-0.209,0.019-0.414,0.055-0.615,0.108c-0.174,0.046-0.34,0.118-0.491,0.211c-0.138,0.083-0.248,0.201-0.326,0.339
	c-0.08,0.152-0.119,0.321-0.117,0.492c-0.02,0.294,0.096,0.582,0.311,0.783C178.969,41.108,179.286,41.204,179.606,41.184
	L179.606,41.184z"/>
<path fill="#FFFFFF" d="M185.276,42.05v-7.457h1.332v1.087c0.264-0.378,0.608-0.69,1.01-0.916c0.422-0.224,0.893-0.335,1.369-0.325
	c0.418-0.012,0.83,0.091,1.194,0.295c0.326,0.2,0.601,0.473,0.804,0.798c0.231,0.358,0.398,0.754,0.492,1.171
	c0.1,0.464,0.148,0.938,0.146,1.413v3.938h-1.396v-3.889c0.002-0.351-0.029-0.703-0.095-1.048c-0.052-0.287-0.149-0.563-0.296-0.817
	c-0.127-0.221-0.309-0.406-0.525-0.537c-0.242-0.135-0.517-0.201-0.793-0.192c-0.392-0.008-0.775,0.105-1.099,0.325
	c-0.284,0.189-0.537,0.419-0.753,0.685v5.468h-1.391V42.05z"/>
<path fill="#FFFFFF" d="M193.885,42.05V31.079h1.397v7.039l2.981-3.529h1.615l-3.155,3.667l3.422,3.79h-1.693l-3.17-3.696v3.696
	L193.885,42.05z"/>
<path fill="#FFFFFF" d="M80.385,22.922c0.725,0.004,1.448,0.07,2.161,0.197c0.643,0.098,1.274,0.269,1.879,0.507l-0.344,1.634
	c-0.547-0.191-1.108-0.341-1.679-0.448c-0.583-0.113-1.177-0.171-1.771-0.171c-1.917,0-3.41,0.537-4.479,1.609
	c-1.069,1.072-1.606,2.606-1.61,4.597c0,1.991,0.537,3.524,1.61,4.598c1.073,1.073,2.566,1.609,4.479,1.609
	c0.594,0,1.188-0.059,1.771-0.172c0.57-0.107,1.131-0.257,1.679-0.447l0.344,1.634c-0.606,0.243-1.239,0.417-1.885,0.517
	c-0.714,0.126-1.437,0.193-2.161,0.196c-1.149,0.02-2.293-0.182-3.367-0.595c-0.941-0.366-1.792-0.93-2.496-1.654
	c-0.684-0.72-1.21-1.572-1.55-2.505c-0.721-2.054-0.721-4.291,0-6.345c0.34-0.933,0.867-1.786,1.55-2.505
	c0.703-0.723,1.555-1.288,2.496-1.653C78.088,23.108,79.233,22.903,80.385,22.922z"/>
<path fill="#FFFFFF" d="M97.898,38.506l-8.574-12.02v12.02h-2.023V23.198h2.023l8.574,12.02v-12.02h2.027v15.308H97.898z"/>
<path fill="#FFFFFF" d="M110.952,22.922c0.824-0.003,1.648,0.069,2.46,0.216c0.731,0.131,1.444,0.359,2.116,0.679l-0.346,1.679
	c-0.666-0.263-1.354-0.471-2.058-0.62c-0.706-0.153-1.427-0.23-2.149-0.232c-1.901,0-3.394,0.555-4.479,1.664
	c-1.086,1.109-1.636,2.676-1.648,4.701c0,1.969,0.514,3.472,1.54,4.509c1.027,1.037,2.568,1.56,4.622,1.57
	c0.494,0,0.986-0.035,1.478-0.103c0.432-0.055,0.855-0.146,1.274-0.266v-4.971h1.929v6.153c-0.718,0.286-1.465,0.492-2.229,0.615
	c-0.894,0.163-1.802,0.245-2.711,0.246c-1.15,0.018-2.295-0.172-3.377-0.562c-0.943-0.339-1.804-0.875-2.524-1.57
	c-0.698-0.695-1.236-1.535-1.575-2.461c-0.372-1.008-0.555-2.076-0.542-3.15c-0.014-1.121,0.176-2.235,0.562-3.288
	c0.352-0.959,0.903-1.833,1.619-2.564c0.732-0.729,1.609-1.295,2.574-1.664C108.594,23.092,109.771,22.895,110.952,22.922z"/>
<path fill="#FFFFFF" d="M129.43,34.224c0.005,0.606-0.144,1.204-0.429,1.737c-0.294,0.541-0.708,1.005-1.211,1.358
	c-0.569,0.399-1.204,0.696-1.875,0.876c-0.793,0.216-1.61,0.32-2.432,0.31h-4.33V23.198h4.742c0.687-0.006,1.368,0.083,2.028,0.266
	c0.563,0.155,1.095,0.412,1.563,0.758c0.425,0.311,0.771,0.715,1.016,1.181c0.24,0.469,0.363,0.989,0.359,1.516
	c0.021,0.834-0.301,1.641-0.887,2.235c-0.633,0.629-1.408,1.096-2.259,1.363c1.003,0.152,1.942,0.587,2.706,1.255
	C129.099,32.406,129.465,33.3,129.43,34.224z M123.134,29.793c0.499,0.005,0.994-0.056,1.477-0.182
	c0.418-0.106,0.813-0.282,1.172-0.522c0.314-0.213,0.576-0.494,0.769-0.822c0.187-0.333,0.283-0.709,0.274-1.092
	c0.039-0.683-0.289-1.334-0.86-1.708c-0.674-0.407-1.453-0.605-2.239-0.571h-2.529v4.897H123.134z M127.405,34.17
	c0.01-0.424-0.104-0.84-0.324-1.202c-0.221-0.348-0.521-0.639-0.876-0.847c-0.4-0.233-0.837-0.399-1.289-0.492
	c-0.517-0.11-1.042-0.164-1.571-0.163h-2.17v5.36h2.461c0.967,0.048,1.924-0.186,2.758-0.674c0.672-0.438,1.059-1.202,1.012-2.003
	V34.17L127.405,34.17z"/>
<path fill="#FFFFFF" d="M134.409,48.32v14.925h12.4c1.643,0,2.381-0.738,2.381-2.313v-12.61L134.409,48.32L134.409,48.32z
	 M147.823,60.928c0.07,0.45-0.236,0.875-0.688,0.945c-0.076,0.014-0.154,0.014-0.232,0.003h-11.125V49.714h12.047v11.214H147.823z"
	/>
<polygon fill="#FFFFFF" points="137.039,52.495 137.039,51.126 146.567,51.126 146.567,52.495 142.491,52.495 142.491,54.566 
	146.567,54.566 146.567,55.939 142.491,55.939 142.491,59.075 146.567,59.075 146.567,60.449 137.039,60.449 137.039,59.075 
	141.118,59.075 141.118,55.939 137.039,55.939 137.039,54.566 141.118,54.566 141.118,52.495 "/>
<path fill="#FFFFFF" d="M144.373,58.623c-0.161-0.768-0.396-1.518-0.699-2.238h1.447c0.347,0.701,0.567,1.459,0.649,2.238H144.373z"
	/>
<path fill="#FFFFFF" d="M154.017,52.885v-1.363h11.631v1.363h-4.347c-0.485,0.377-0.996,0.725-1.526,1.037
	c0.715,0.381,1.478,1.733,1.478,3.485v3.981c0,1.59-0.718,1.969-2.003,1.969h-1.732v-1.373h1.19c0.84,0,1.237-0.352,1.19-1.055
	v-1.277c-1.539,1.215-3.523,2.22-7.305,3.012v-1.383c3.318-0.887,5.297-1.723,7.305-3.445c0-0.425-0.045-0.847-0.138-1.261
	c-1.685,1.31-3.662,2.288-7.167,2.954v-1.547c2.987-0.699,4.76-1.278,6.537-2.684c-0.207-0.294-0.501-0.515-0.842-0.628
	c-1.807,0.834-3.725,1.4-5.695,1.683v-1.521c1.546-0.104,3.561-0.82,5.906-1.968L154.017,52.885z"/>
<polygon fill="#FFFFFF" points="152.12,51.614 152.12,48.813 159.101,48.813 159.101,47.553 160.479,47.553 160.479,48.813 
	167.463,48.813 167.463,51.614 166.094,51.614 166.094,50.181 153.493,50.181 153.493,51.614 "/>
<path fill="#FFFFFF" d="M166.995,62.758c-5.795-1.609-5.276-8.086-5.276-8.086h5.276v1.372h-3.717
	c0.154,2.295,1.594,4.308,3.717,5.193V62.758z"/>
<path fill="#FFFFFF" d="M205.176,63.338V61.65c0.188,0.006,0.345-0.145,0.347-0.331c0.002-0.017,0-0.035-0.002-0.052V48.813h6.892
	v-1.191h1.368v1.191h6.508v1.393h-13.395v11.095C206.894,62.305,206.317,63.338,205.176,63.338z"/>
<path fill="#FFFFFF" d="M212.215,50.846h1.478c-0.469,1.998-1.52,3.813-3.019,5.213h3.042v-1.707h1.368v1.707h4.303v1.375h-4.303
	v2.125h5.241v1.363h-5.262v2.461h-1.367v-2.461h-6v-1.363h6v-2.142h-5.021v-1.373C210.183,54.971,211.998,52.131,212.215,50.846z"/>
<rect x="207.696" y="52.014" fill="#FFFFFF" width="12.608" height="1.367"/>
<rect x="173.089" y="59.071" fill="#FFFFFF" width="9.13" height="1.368"/>
<polygon fill="#FFFFFF" points="178.341,58.105 176.973,58.105 176.973,61.872 170.126,61.872 170.126,63.245 185.188,63.245 
	185.188,61.872 178.341,61.872 "/>
<path fill="#FFFFFF" d="M185.188,50.206v-1.393h-2.521v-1.26h-1.368v1.26h-7.364v-1.26h-1.357v1.26h-2.461v1.393h2.461v5.81h-2.461
	v1.371h3.712c-1.173,1.211-3.136,1.676-3.712,1.832v1.438c3.215-0.621,5.09-2.334,5.744-3.271h3.574
	c0.653,0.937,2.534,2.648,5.742,3.271v-1.438c-0.58-0.156-2.54-0.621-3.711-1.832h3.711v-1.371h-2.51v-5.81H185.188z
	 M173.935,50.206h7.359v1.033h-7.359V50.206z M173.935,52.607h7.359v1.044h-7.359V52.607z M173.935,55.069h7.359v0.983h-7.359
	V55.069z"/>
<path fill="#FFFFFF" d="M187.757,48.32v14.925h12.398c1.644,0,2.383-0.738,2.383-2.313v-12.61L187.757,48.32L187.757,48.32z
	 M201.169,60.928c0.072,0.45-0.234,0.875-0.688,0.945c-0.076,0.014-0.154,0.014-0.232,0.003h-11.124V49.714h12.05L201.169,60.928z"
	/>
<rect x="189.907" y="52.396" fill="#FFFFFF" width="10.484" height="1.369"/>
<path fill="#FFFFFF" d="M194.465,50.52h1.364v2.19c-0.083,3.771-2.407,7.128-5.907,8.531v-1.396
	c1.384-0.595,4.558-3.519,4.558-7.137L194.465,50.52z"/>
<path fill="#FFFFFF" d="M195.829,52.711c0,3.618,3.174,6.542,4.557,7.137v1.396c-3.499-1.403-5.822-4.761-5.906-8.531v-2.19h1.364
	L195.829,52.711z"/>
<path fill="#FFFFFF" d="M35.323,52.898c8.643,1.447,17.818,1.815,26.087,0c8.56-1.9,16.066-6.862,24.611-8.757
	c14.023-3.101,28.73,3.978,42.271,0.423v3.476c-6.773,2.437-15.727,1.811-22.47,1.171c-11.394-1.073-20.042-0.054-30.32,5.055
	c-12.975,6.453-25.92,9.895-40.253,6.14c0,0,0.049-2.201,0.049-7.487"/>
<path fill="#FFFFFF" d="M68.803,62.418c11.011-3.835,18.168-8.048,30.099-8.786c5.035-0.31,10.051,0.62,15.067,0.896
	c5.321,0.295,9.466-0.687,14.353-2.601v3.652c-7.775,4.951-20.179,2.634-28.596,3.15c-8.137,0.492-12.798,2.416-20.098,5.789
	c-12.039,5.562-21.106,11.838-34.376,14.158c-6.891,1.204-21.451,0.983-28.785-1.873v-8.563
	C45.403,73.655,53.648,67.694,68.803,62.418"/>
<path fill="#FFFFFF" d="M133.121,54.016c-0.119,0.035-0.229,0.096-0.325,0.174l-0.146,0.127c-0.055,0.052-0.101,0.109-0.139,0.174
	c-0.09,0.15-0.15,0.318-0.184,0.492c-0.033,0.214-0.055,0.432-0.063,0.647c-0.01,0.257-0.039,0.513-0.094,0.765
	c-0.02,0.069-0.039,0.14-0.064,0.207c-0.025,0.066-0.056,0.133-0.088,0.196c-0.068,0.136-0.15,0.263-0.246,0.38
	c-0.203,0.231-0.451,0.422-0.729,0.555c-0.271,0.139-0.542,0.238-0.804,0.341l-0.187,0.079l-0.173,0.083
	c-0.113,0.06-0.227,0.129-0.329,0.196c-0.396,0.271-0.741,0.604-1.028,0.984c-0.221,0.283-0.396,0.596-0.526,0.93
	c0,0.064-0.044,0.125-0.063,0.178c0.752,0.492,0.787,1.601,0.397,2.787c-0.16,0.477-0.431,0.91-0.788,1.266l0,0l0,0
	c-0.53,0.521-1.161,0.768-1.551,0.64c-0.569-0.188-1.088-1.368-0.836-2.594c-0.447,0.546-0.742,2.651,0.408,3.185
	c0.227,0.104,0.256,0.271,0.034,0.429c-10.612,7.731-26.58,0.211-40.756,6.239c-5.837,2.461-11.375,7.655-16.312,11.554
	C50.754,98.064,25.71,103.165,3.624,97.715l0,0c-0.24-0.072-0.447-0.223-0.591-0.429C2.98,97.221,2.923,97.158,2.86,97.1
	c-0.075-0.004-0.15-0.004-0.226,0c-0.247,0.024-0.495-0.037-0.699-0.179l-0.088-0.073c-0.146-0.151-0.247-0.341-0.296-0.547
	c-0.025-0.08-0.055-0.158-0.088-0.236c0,0-0.089-0.049-0.208-0.092c-0.218-0.067-0.409-0.203-0.546-0.386l0,0l-0.024-0.038
	c-0.119-0.221-0.16-0.476-0.118-0.724c0.006-0.085,0.006-0.17,0-0.257c0,0-0.059-0.077-0.152-0.165
	c-0.21-0.152-0.355-0.378-0.409-0.632c-0.025-0.248,0.033-0.5,0.167-0.713c0.04-0.074,0.074-0.151,0.103-0.23
	c0,0-0.025-0.096-0.079-0.212c-0.109-0.202-0.15-0.433-0.118-0.66l0,0c-0.005-0.017-0.005-0.036,0-0.054
	c0.073-0.24,0.223-0.447,0.428-0.592c0.068-0.053,0.13-0.108,0.187-0.172c0.004-0.074,0.004-0.15,0-0.226
	c-0.026-0.248,0.037-0.496,0.178-0.699c0.159-0.194,0.379-0.329,0.625-0.385c0.083-0.022,0.163-0.053,0.241-0.089
	c0,0,0.049-0.088,0.094-0.206c0.07-0.24,0.224-0.445,0.433-0.581c0.222-0.119,0.476-0.16,0.723-0.118
	c0.085,0.005,0.171,0.005,0.256,0c0,0,0.079-0.059,0.167-0.151c0.157-0.193,0.376-0.323,0.621-0.371
	c0.25-0.024,0.501,0.035,0.714,0.17c0.074,0.041,0.151,0.076,0.231,0.106c0,0,0.094-0.024,0.211-0.079
	c0.187-0.094,0.396-0.135,0.606-0.117h0.118h0.039c0.054,0.016,0.107,0.037,0.158,0.063l0,0c0.051,0.028,0.098,0.062,0.143,0.099
	l0,0l0.078,0.08l0.133,0.146l0.064,0.073c0.035,0.043,0.081,0.076,0.132,0.096c0.454,0.122,0.803-0.229,1.875,0
	c3.726,0.826,6.281,1.273,7.132,1.354c12.437,1.164,24.972-0.6,36.606-5.149c10.853-4.355,20.21-14.421,31.152-18.565
	c12.384-4.687,22.49,0.602,34.824-2.259c4.784-1.106,7.512-3.26,10.065-5.783l0,0c0.281-0.259,0.592-0.481,0.926-0.666
	c0.129-0.069,0.263-0.135,0.397-0.19l0.212-0.084l0.213-0.063c0.274-0.083,0.541-0.151,0.786-0.252
	c0.237-0.085,0.455-0.217,0.64-0.389c0.176-0.171,0.309-0.38,0.391-0.609c0.07-0.229,0.125-0.466,0.156-0.704
	c0.033-0.223,0.078-0.443,0.139-0.658c0.055-0.18,0.143-0.346,0.256-0.492c0.049-0.065,0.107-0.123,0.174-0.174l0.161-0.112
	C132.875,54.081,132.995,54.036,133.121,54.016z M5.78,89.805c-1.845-0.461-3.714,0.657-4.179,2.502
	c-0.311,1.278,0.147,2.623,1.177,3.444c-0.757-0.935-1.034-2.169-0.749-3.337C2.679,89.696,5.883,89.829,5.78,89.805z"/>
</svg>
